<?xml version="1.0" standalone="no"?>
<!DOCTYPE svg PUBLIC "-//W3C//DTD SVG 20010904//EN"
 "http://www.w3.org/TR/2001/REC-SVG-20010904/DTD/svg10.dtd">
<svg version="1.0" xmlns="http://www.w3.org/2000/svg"
 width="290.000000pt" height="177.000000pt" viewBox="0 0 290.000000 177.000000"
 preserveAspectRatio="xMidYMid meet">

<g transform="translate(0.000000,177.000000) scale(0.100000,-0.100000)"
fill="#000000" stroke="none">
<path d="M510 1550 c-190 -66 -249 -89 -230 -94 14 -3 76 -15 139 -26 63 -11
125 -27 137 -35 22 -14 27 -13 71 15 119 76 217 77 322 5 28 -19 52 -35 55
-35 2 0 6 9 9 20 3 13 14 20 30 20 14 0 32 2 40 6 10 4 16 -6 21 -38 4 -27 3
-44 -4 -46 -11 -4 -13 -54 -4 -89 4 -14 14 -23 26 -23 10 0 16 5 13 10 -3 6
-1 10 4 10 14 0 14 77 1 85 -15 9 -12 92 3 98 6 2 45 10 85 17 39 7 71 15 69
16 -8 8 -504 174 -517 173 -8 -1 -130 -41 -270 -89z" style="stroke-width: 0px; fill: rgba(37, 29, 29, 0.89);"/>
<path d="M736 1430 c-55 -17 -105 -61 -132 -117 -23 -45 -26 -63 -21 -112 5
-64 40 -127 86 -157 l26 -18 -101 -18 c-254 -44 -415 -146 -401 -252 7 -53 70
-115 156 -154 102 -46 124 -50 73 -13 -181 133 -47 286 313 357 137 28 454 25
590 -4 54 -12 101 -20 103 -18 1 2 -35 17 -81 34 -100 36 -218 60 -340 69
l-88 6 35 36 c37 38 66 104 66 150 0 140 -150 251 -284 211z"  style="stroke-width: 0px; fill:rgba(111, 179, 194, 0.89);"/>
<path d="M1270 858 c-55 -32 -80 -59 -80 -89 0 -22 -9 -31 -52 -53 -84 -42
-91 -49 -96 -110 -4 -48 -8 -56 -32 -66 -41 -17 -90 -9 -107 17 -14 21 -13 24
17 40 67 37 91 63 88 97 -3 27 -7 31 -36 34 -46 5 -118 -34 -133 -71 -22 -52
-16 -123 11 -152 30 -32 72 -32 129 0 53 31 55 31 69 0 14 -31 28 -31 74 0 46
31 54 31 62 0 8 -31 17 -31 77 2 56 30 61 39 22 38 -36 0 -42 32 -32 170 9
114 18 136 49 128 26 -7 57 17 38 28 -18 12 -28 10 -68 -13z m-320 -168 c13
-25 1 -50 -35 -74 l-25 -16 0 36 c0 35 22 74 41 74 5 0 13 -9 19 -20z m222 0
c15 0 2 -131 -14 -142 -28 -17 -47 -8 -54 26 -11 62 14 133 43 121 8 -3 19 -5
25 -5z" style="stroke-width: 0px; fill: rgba(106, 43, 43, 0.89);"/>
<path d="M758 813 c-20 -5 -24 -28 -7 -39 22 -13 5 -109 -31 -168 -19 -30 -36
-53 -39 -50 -4 3 -18 56 -32 117 -23 101 -24 113 -10 124 13 10 2 12 -61 13
-42 0 -80 -4 -83 -10 -3 -6 5 -10 18 -10 22 0 27 -8 46 -80 12 -44 29 -114 38
-155 9 -41 21 -75 27 -74 37 2 47 14 183 213 37 54 41 85 15 109 -18 17 -31
19 -64 10z" style="stroke-width: 0px; fill: rgba(106, 43, 43, 0.89);"/>
<path d="M1935 801 c-77 -35 -114 -107 -101 -195 14 -92 74 -132 187 -124 113
8 161 56 167 166 3 57 0 72 -20 102 -45 68 -148 90 -233 51z m135 -23 c65 -70
43 -256 -33 -282 -85 -30 -139 80 -111 223 15 74 98 108 144 59z" style="stroke-width: 0px; fill: rgba(106, 43, 43, 0.89);"/>
<path d="M1338 712 c-53 -17 -63 -32 -22 -32 l27 0 -6 -70 c-5 -65 5 -130 21
-130 4 0 31 14 61 30 30 17 55 30 57 30 1 0 5 -13 9 -30 8 -36 13 -36 66 -9
l41 20 22 -20 c29 -27 71 -26 121 2 40 23 63 62 52 90 -3 9 -29 28 -57 42 -35
18 -50 31 -50 45 0 31 45 30 72 -1 17 -20 17 -20 28 1 16 30 -3 50 -47 50 -26
0 -43 -8 -69 -34 -53 -53 -44 -92 31 -127 41 -19 43 -63 3 -67 -20 -2 -32 4
-48 26 -20 27 -25 29 -51 19 -15 -6 -32 -8 -36 -3 -9 9 -7 139 3 168 4 14 0
18 -16 18 -37 0 -60 -19 -60 -49 0 -74 -12 -119 -36 -132 -45 -24 -55 11 -38
134 7 54 2 56 -78 29z" style="stroke-width: 0px; fill: rgba(106, 43, 43, 0.89);"/>
<path d="M2265 714 c-49 -18 -67 -34 -38 -34 28 0 29 -4 23 -109 l-5 -90 30 6
c17 3 32 7 34 9 2 2 6 37 9 77 4 69 7 75 33 91 16 9 34 14 39 11 7 -4 10 -41
9 -91 -3 -110 4 -118 75 -79 l55 29 21 -27 c15 -19 31 -27 52 -27 32 0 128 47
128 62 0 5 -9 4 -19 -2 -44 -23 -111 -3 -111 34 0 7 17 22 38 34 54 30 74 55
70 89 -3 24 -8 28 -38 31 -43 3 -109 -33 -127 -68 -7 -14 -13 -44 -13 -67 0
-33 -4 -43 -21 -48 -35 -11 -42 8 -37 99 5 101 4 102 -85 56 l-57 -29 0 29 c0
34 -7 35 -65 14z m383 -16 c20 -20 13 -45 -20 -74 l-33 -27 -3 32 c-3 31 19
81 36 81 5 0 13 -5 20 -12z" style="stroke-width: 0px; fill: rgba(106, 43, 43, 0.89);"/>
<path d="M995 408 c-10 -27 -65 -213 -65 -220 0 -20 29 -5 34 17 5 21 12 25
41 25 29 0 37 -5 45 -25 8 -20 16 -25 44 -25 l34 0 -18 63 c-10 34 -26 88 -34
120 -15 53 -19 57 -47 57 -16 0 -32 -6 -34 -12z m35 -130 c0 -13 -8 -18 -26
-18 -19 0 -24 4 -20 18 3 9 8 31 12 47 l7 30 13 -30 c7 -16 13 -38 14 -47z" style="stroke-width: 0px; fill: rgba(106, 43, 43, 0.89);"/>
<path d="M1600 388 c0 -31 -2 -33 -37 -33 -47 0 -66 -30 -60 -97 6 -68 16 -77
98 -77 l69 0 0 119 0 120 -35 0 c-33 0 -35 -2 -35 -32z m-2 -122 c-2 -31 -7
-57 -13 -59 -11 -2 -20 97 -10 121 12 32 26 -6 23 -62z" style="stroke-width: 0px; fill: rgba(106, 43, 43, 0.89);"/>
<path d="M1164 337 c-22 -19 -27 -33 -28 -71 -1 -63 26 -88 93 -84 39 3 48 7
60 32 11 24 11 30 0 37 -10 6 -15 1 -19 -18 -3 -14 -13 -31 -23 -37 -36 -22
-60 51 -41 122 9 30 48 27 52 -5 4 -26 32 -20 32 6 0 46 -80 57 -126 18z" style="stroke-width: 0px; fill: rgba(106, 43, 43, 0.89);"/>
<path d="M1338 349 c-22 -12 -24 -49 -3 -49 8 0 15 9 15 19 0 25 30 36 48 17
19 -19 8 -34 -39 -53 -27 -10 -41 -23 -46 -41 -11 -46 6 -57 96 -59 46 -1 81
2 81 7 0 6 -4 10 -10 10 -6 0 -10 29 -10 68 0 40 -5 73 -12 80 -15 15 -96 15
-120 1z m72 -98 c0 -35 -26 -62 -36 -36 -8 19 11 65 26 65 5 0 10 -13 10 -29z" style="stroke-width: 0px; fill: rgba(106, 43, 43, 0.89);"/>
<path d="M1720 335 c-30 -32 -34 -103 -6 -134 22 -24 103 -30 124 -9 15 15 16
48 2 48 -5 0 -10 -6 -10 -14 0 -7 -7 -20 -16 -27 -14 -11 -19 -10 -35 10 -31
38 -25 51 26 51 43 0 45 1 45 30 0 66 -83 95 -130 45z m78 -28 c2 -19 -1 -27
-12 -27 -20 0 -29 16 -21 41 9 27 29 19 33 -14z" style="stroke-width: 0px; fill: rgba(106, 43, 43, 0.89);"/>
<path d="M1880 270 l0 -90 35 0 34 0 3 72 c2 46 7 73 16 76 9 3 12 -16 12 -72
l0 -76 30 0 c30 0 30 0 30 56 0 58 14 99 31 89 5 -4 9 -37 9 -76 l0 -69 30 0
31 0 -3 88 c-3 86 -3 87 -30 90 -15 2 -36 -2 -47 -7 -13 -7 -22 -8 -26 -1 -9
14 -58 13 -73 -2 -9 -9 -12 -9 -12 0 0 7 -14 12 -35 12 l-35 0 0 -90z" style="stroke-width: 0px; fill: rgba(106, 43, 43, 0.89);"/>
<path d="M2160 352 c0 -5 15 -47 34 -94 35 -91 34 -125 -5 -113 -13 4 -19 2
-19 -9 0 -22 43 -21 62 2 15 17 88 193 88 212 0 27 -19 5 -37 -42 l-20 -52
-17 52 c-17 49 -19 52 -52 52 -19 0 -34 -4 -34 -8z" style="stroke-width: 0px; fill: rgba(106, 43, 43, 0.89);"/>
</g>
</svg>
