<?xml version="1.0" encoding="utf-8"?>
<svg viewBox="0 0 112 72" xmlns="http://www.w3.org/2000/svg">
  <g transform="matrix(0.006858000066131354, 0, 0, -0.005551000125706196, 0.9314040819228921, 70.93850156481562)" fill="#000000" stroke="none" style="">
    <path d="M7110 12379 c-946 -57 -1956 -346 -2804 -801 -1334 -715 -2401 -1818 -3083 -3185 l-107 -213 -553 0 -553 0 0 -2985 0 -2985 7695 0 7695 0 0 2985 0 2985 -686 2 -686 3 -122 240 c-165 325 -301 557 -484 825 -1257 1843 -3245 2995 -5402 3130 -185 11 -719 11 -910 -1z m765 -189 c932 -40 1820 -267 2660 -680 741 -364 1320 -781 1907 -1376 586 -594 1050 -1266 1412 -2046 l45 -98 650 0 651 0 0 -2790 0 -2790 -7500 0 -7500 0 2 2788 3 2787 520 3 520 2 105 217 c474 980 1115 1790 1965 2484 131 107 270 209 450 331 1224 830 2638 1232 4110 1168z" style="fill: rgb(30, 70, 158);"/>
    <path d="M7310 11179 c-140 -55 -322 -126 -405 -158 -82 -32 -238 -92 -345 -134 -498 -193 -620 -240 -690 -267 -41 -16 -151 -59 -245 -95 -93 -36 -233 -90 -310 -120 -77 -30 -185 -71 -240 -93 -55 -21 -205 -79 -332 -128 -128 -49 -233 -91 -233 -94 0 -3 105 -45 233 -94 127 -49 318 -122 422 -163 333 -130 383 -149 730 -283 187 -73 390 -151 450 -175 61 -23 363 -140 671 -260 l562 -217 118 46 c66 25 193 74 284 109 91 35 284 110 430 167 146 56 328 127 405 157 77 30 203 78 280 108 77 30 217 84 310 120 94 36 204 79 245 95 41 16 202 78 358 138 l282 109 0 -66 c0 -101 -39 -943 -45 -968 -8 -33 17 -84 59 -121 64 -56 135 -40 186 42 21 34 21 35 5 243 -24 336 -55 824 -55 879 l0 51 100 38 c55 21 100 41 100 45 0 4 -51 26 -112 50 -62 23 -174 67 -248 96 -74 29 -387 150 -695 269 -308 119 -587 227 -620 240 -33 13 -213 82 -400 155 -187 72 -380 147 -430 166 -200 78 -296 115 -420 164 -71 27 -134 50 -140 49 -5 0 -125 -46 -265 -100z" style="fill: rgb(8, 43, 118);"/>
    <path d="M5340 8510 l0 -1110 2240 0 2240 0 0 1111 c0 885 -3 1110 -12 1106 -24 -10 -612 -238 -753 -292 -77 -30 -216 -84 -310 -120 -93 -37 -204 -79 -245 -95 -41 -16 -151 -58 -245 -95 -93 -36 -233 -90 -310 -120 -77 -30 -187 -73 -245 -96 -58 -23 -112 -41 -120 -41 -8 0 -107 36 -220 79 -259 101 -578 225 -695 270 -49 19 -117 45 -150 58 -33 13 -132 51 -220 85 -88 34 -212 82 -275 107 -63 24 -160 62 -215 83 -167 65 -331 129 -400 155 l-65 24 0 -1109z" style="fill: rgb(30, 70, 158);"/>
    <path d="M460 5195 l0 -2515 7265 0 7265 0 0 2515 0 2515 -2517 -2 -2518 -3 -3 -223 -2 -222 -2373 2 -2372 3 -3 223 -2 222 -2370 0 -2370 0 0 -2515z m2320 -175 l0 -1940 -562 2 -563 3 -3 1925 c-1 1059 0 1931 3 1938 3 9 126 12 565 12 l560 0 0 -1940z m3475 1470 l0 -465 -340 -6 c-413 -7 -489 -19 -670 -104 -261 -122 -463 -364 -537 -647 -19 -70 -22 -109 -22 -253 0 -144 4 -182 22 -250 89 -322 343 -588 658 -689 144 -46 246 -58 579 -65 l310 -6 3 -462 2 -463 -373 0 c-527 0 -758 26 -1047 116 -694 217 -1194 806 -1311 1544 -22 137 -17 439 9 587 44 250 161 539 307 758 342 514 860 801 1540 854 211 17 226 17 560 17 l310 -1 0 -465z m2445 451 c233 -28 391 -73 546 -155 305 -163 524 -466 599 -831 22 -108 22 -333 0 -440 -80 -389 -347 -722 -695 -866 -202 -85 -369 -110 -772 -116 l-318 -6 0 -723 0 -724 -560 0 -560 0 0 1190 0 1190 648 0 c356 0 698 5 759 10 191 15 271 54 323 156 20 40 24 63 24 124 -1 127 -56 200 -181 242 l-68 23 -752 3 -753 3 0 470 0 471 833 -5 c525 -3 867 -9 927 -16z m3841 -66 c33 -99 590 -1786 692 -2095 41 -124 183 -554 316 -956 132 -402 241 -734 241 -737 0 -4 -864 -7 -1920 -7 -1101 0 -1920 4 -1920 9 0 5 27 87 61 182 33 96 67 192 74 214 7 22 43 126 80 230 37 105 73 208 80 230 7 22 48 139 90 260 106 304 142 407 228 655 41 118 105 302 142 408 l68 192 508 0 c280 0 509 -2 509 -5 0 -11 -43 -156 -163 -555 -69 -228 -155 -514 -192 -635 -36 -121 -68 -228 -71 -237 -5 -17 24 -18 515 -18 317 0 521 4 521 9 0 6 -29 88 -65 183 -36 95 -126 333 -199 528 -74 195 -234 621 -356 945 -332 882 -480 1277 -480 1281 0 2 273 3 608 2 l607 -3 26 -80z" style="fill: rgb(30, 70, 158);"/>
    <path d="M14485 9728 c-3 -11 -1 -58 3 -80 1 -5 61 -8 132 -8 l130 0 0 -365 0 -365 55 0 55 0 0 365 0 365 130 0 130 0 0 50 0 50 -315 0 c-244 0 -317 -3 -320 -12z" style="fill: rgb(30, 70, 158);"/>
    <path d="M15237 9733 c-4 -3 -7 -190 -7 -415 l0 -408 50 0 50 0 0 347 c0 190 3 344 6 340 3 -3 57 -158 118 -344 l112 -338 50 -3 49 -3 115 343 115 343 3 -342 2 -343 50 0 50 0 0 415 0 415 -69 0 -69 0 -16 -42 c-9 -24 -62 -184 -120 -357 -57 -172 -106 -309 -108 -305 -3 5 -10 25 -16 44 -6 19 -56 176 -112 348 l-101 312 -73 0 c-40 0 -76 -3 -79 -7z" style="fill: rgb(30, 70, 158);"/>
    <path d="M3333 1432 c-142 -50 -240 -178 -279 -363 -22 -103 -14 -347 14 -439 49 -161 114 -250 220 -302 61 -30 75 -33 157 -33 71 1 100 5 138 23 68 31 120 74 157 132 31 48 79 170 80 201 0 10 -18 21 -52 32 -56 18 -68 15 -68 -13 0 -35 -43 -130 -76 -169 -88 -103 -253 -110 -348 -15 -83 84 -116 193 -116 387 0 199 40 325 128 397 81 66 204 77 284 25 43 -29 92 -99 110 -157 6 -21 15 -38 20 -38 20 0 99 23 103 30 7 11 -34 117 -61 160 -33 53 -91 107 -143 132 -63 31 -194 36 -268 10z" style="fill: rgb(30, 70, 158);"/>
    <path d="M6123 1436 c-198 -64 -317 -279 -317 -571 1 -315 145 -526 388 -568 123 -21 256 21 379 118 l57 45 0 210 0 210 -190 0 -191 0 3 -62 3 -63 133 -3 132 -3 0 -103 0 -104 -31 -27 c-46 -38 -116 -71 -179 -84 -142 -29 -286 52 -344 194 -46 114 -54 323 -17 450 29 101 90 184 165 223 69 36 189 38 252 5 58 -31 107 -91 128 -158 19 -61 20 -62 92 -35 24 9 26 14 19 48 -9 51 -49 136 -84 181 -17 21 -58 53 -93 72 -58 31 -71 34 -163 36 -65 2 -115 -2 -142 -11z" style="fill: rgb(30, 70, 158);"/>
    <path d="M10449 1427 c-56 -37 -79 -95 -79 -204 l0 -93 -50 0 -50 0 0 -55 0 -55 50 0 50 0 0 -355 0 -355 50 0 50 0 2 353 3 352 63 3 63 3 -3 52 -3 52 -64 3 -64 3 6 77 c8 96 31 122 106 122 53 0 61 9 61 76 0 39 -12 44 -94 44 -49 0 -71 -5 -97 -23z" style="fill: rgb(30, 70, 158);"/>
    <path d="M160 1370 l0 -70 145 0 145 0 0 -495 0 -495 60 0 60 0 0 495 0 495 145 0 145 0 0 70 0 70 -350 0 -350 0 0 -70z" style="fill: rgb(30, 70, 158);"/>
    <path d="M970 876 l0 -566 55 0 55 0 0 268 c0 206 3 280 14 317 44 143 212 179 273 57 16 -33 18 -70 21 -339 l4 -303 49 0 50 0 -3 338 c-3 333 -3 338 -27 385 -33 66 -85 100 -162 105 -75 6 -136 -16 -181 -64 l-33 -35 -5 198 -5 198 -52 3 -53 3 0 -565z" style="fill: rgb(30, 70, 158);"/>
    <path d="M2750 875 l0 -565 55 0 55 0 0 565 0 565 -55 0 -55 0 0 -565z" style="fill: rgb(30, 70, 158);"/>
    <path d="M3980 876 l0 -566 55 0 55 0 0 230 0 230 153 0 c100 0 170 5 206 15 130 34 205 153 205 325 0 106 -24 176 -80 239 -66 74 -99 82 -371 88 l-223 6 0 -567z m470 406 c21 -10 44 -34 59 -61 44 -81 29 -223 -29 -276 -38 -34 -91 -44 -242 -45 l-148 0 0 200 0 200 163 0 c134 0 168 -3 197 -18z" style="fill: rgb(30, 70, 158);"/>
    <path d="M4960 1418 c-6 -13 -43 -133 -84 -268 -61 -203 -189 -625 -242 -797 l-13 -43 63 0 62 0 13 53 c8 28 24 86 37 127 12 41 28 94 34 118 l11 42 188 0 189 0 22 -72 c12 -40 35 -117 52 -171 l30 -97 64 0 c35 0 64 3 64 8 0 7 -10 40 -201 627 -66 204 -125 386 -131 405 -25 82 -33 90 -93 90 -48 0 -57 -3 -65 -22z m150 -403 c33 -116 63 -218 66 -227 5 -17 -6 -18 -145 -18 -83 0 -151 3 -151 8 0 4 21 75 45 157 39 129 71 252 92 345 7 30 5 35 93 -265z" style="fill: rgb(30, 70, 158);"/>
    <path d="M11077 1434 c-4 -4 -7 -259 -7 -566 l0 -558 60 0 60 0 -2 563 -3 562 -50 3 c-28 2 -54 0 -58 -4z" style="fill: rgb(30, 70, 158);"/>
    <path d="M13050 1361 l0 -81 49 0 c55 0 57 2 56 100 l0 55 -52 3 -53 3 0 -80z" style="fill: rgb(30, 70, 158);"/>
    <path d="M12772 1362 l-42 -37 0 -97 0 -97 -37 -3 -38 -3 -3 -52 -3 -52 38 -3 38 -3 5 -315 c6 -354 6 -357 78 -387 33 -14 133 -15 146 -2 3 2 1 29 -2 59 l-7 55 -42 3 c-23 2 -47 10 -55 19 -10 12 -13 77 -13 292 l0 276 53 3 53 3 -3 52 -3 52 -50 1 -50 1 -3 137 c-1 75 -6 136 -10 136 -4 0 -26 -17 -50 -38z" style="fill: rgb(30, 70, 158);"/>
    <path d="M13398 1362 l-48 -36 0 -98 c0 -71 -3 -98 -12 -99 -7 -1 -24 -2 -38 -2 -23 -2 -25 -6 -28 -54 l-3 -53 40 0 39 0 4 -314 c3 -300 4 -316 24 -343 28 -38 80 -63 131 -63 74 0 84 14 67 99 -6 28 -10 31 -45 31 -69 0 -69 -2 -69 311 l0 279 56 0 55 0 -3 53 -3 52 -40 2 c-22 1 -46 2 -52 2 -10 1 -13 35 -13 136 0 74 -3 135 -7 134 -5 0 -29 -17 -55 -37z" style="fill: rgb(30, 70, 158);"/>
    <path d="M14442 1362 l-44 -37 0 -98 c-1 -104 0 -102 -55 -97 -21 1 -23 -3 -23 -44 0 -25 0 -49 0 -53 -1 -5 16 -10 37 -13 l38 -5 3 -305 c2 -264 5 -310 20 -340 24 -49 73 -72 144 -67 32 2 59 5 61 8 2 2 1 29 -2 59 l-6 55 -45 5 c-69 8 -70 13 -70 323 l0 267 56 0 55 0 -3 53 c-2 32 -8 52 -15 53 -7 1 -31 2 -53 3 l-40 1 0 135 c0 74 -3 135 -7 135 -5 0 -27 -17 -51 -38z" style="fill: rgb(30, 70, 158);"/>
    <path d="M1839 1126 c-135 -48 -209 -196 -209 -414 0 -158 34 -262 107 -336 58 -59 114 -81 203 -80 86 0 132 19 192 79 38 38 95 162 81 175 -4 4 -29 10 -55 13 l-47 6 -24 -53 c-59 -129 -191 -150 -281 -45 -34 41 -52 86 -62 163 l-7 46 242 0 241 0 0 73 c0 81 -20 169 -53 236 -27 55 -107 127 -155 141 -50 13 -129 12 -173 -4z m172 -119 c18 -12 43 -37 56 -55 23 -35 49 -135 38 -152 -4 -6 -74 -10 -182 -10 l-176 0 6 49 c9 79 51 146 112 179 35 20 109 14 146 -11z" style="fill: rgb(30, 70, 158);"/>
    <path d="M6972 1124 c-13 -9 -36 -37 -52 -62 -16 -26 -30 -45 -31 -42 -1 3 -2 28 -4 55 l-2 50 -44 0 -44 0 -3 -407 -2 -408 54 0 54 0 4 288 c4 314 7 337 64 381 29 23 65 25 119 7 17 -6 22 1 37 51 9 31 14 61 11 66 -9 16 -71 37 -105 37 -19 0 -44 -7 -56 -16z" style="fill: rgb(30, 70, 158);"/>
    <path d="M7355 1117 c-64 -30 -128 -103 -155 -173 -39 -105 -45 -282 -14 -411 12 -49 53 -121 89 -158 75 -75 170 -100 269 -71 153 45 237 220 223 466 -9 160 -61 268 -158 330 -44 29 -62 34 -128 37 -65 3 -84 0 -126 -20z m168 -96 c39 -15 94 -79 112 -129 23 -66 30 -206 16 -284 -15 -79 -44 -131 -94 -171 -79 -64 -190 -30 -241 75 -46 94 -53 285 -15 387 38 99 138 154 222 122z" style="fill: rgb(30, 70, 158);"/>
    <path d="M8805 1126 c-30 -13 -95 -73 -95 -88 0 -4 -5 -8 -11 -8 -6 0 -10 15 -9 33 4 64 3 65 -42 63 l-43 -1 -3 -562 -2 -563 50 0 50 0 0 196 0 197 43 -40 c24 -22 61 -46 81 -53 79 -26 185 18 245 101 93 128 116 378 51 551 -25 69 -90 145 -145 169 -47 22 -127 24 -170 5z m122 -105 c84 -38 132 -180 119 -348 -8 -107 -36 -182 -85 -226 -54 -48 -90 -55 -148 -25 -63 31 -99 96 -114 203 -25 181 31 360 124 400 42 19 54 18 104 -4z" style="fill: rgb(30, 70, 158);"/>
    <path d="M9806 1125 c-129 -46 -206 -199 -206 -408 1 -219 85 -372 228 -413 144 -42 280 35 343 193 21 52 24 74 24 223 0 148 -3 171 -23 221 -63 157 -221 236 -366 184z m158 -109 c44 -18 90 -76 110 -138 21 -65 22 -246 2 -312 -45 -148 -171 -206 -270 -124 -64 53 -96 142 -96 273 0 227 112 360 254 301z" style="fill: rgb(30, 70, 158);"/>
    <path d="M11594 1123 c-48 -28 -57 -36 -87 -71 l-27 -34 0 51 c0 45 -3 51 -24 57 -13 3 -35 4 -47 2 l-24 -3 -3 -407 -2 -408 54 0 55 0 3 292 c3 280 4 295 25 334 29 54 80 86 139 86 52 1 88 -21 119 -73 19 -32 20 -55 23 -337 l4 -302 55 0 56 0 -5 318 c-6 346 -12 387 -66 446 -58 62 -181 87 -248 49z" style="fill: rgb(30, 70, 158);"/>
    <path d="M12199 1126 c-77 -27 -122 -80 -140 -164 -22 -107 22 -207 110 -251 20 -10 81 -33 136 -51 129 -43 160 -71 152 -138 -9 -86 -100 -138 -194 -113 -54 15 -88 48 -110 110 l-18 52 -40 -7 c-22 -3 -43 -8 -47 -11 -31 -18 32 -166 87 -209 69 -52 169 -67 264 -38 139 41 211 213 147 351 -29 62 -63 84 -228 143 -126 46 -159 70 -160 119 -2 69 50 111 140 111 65 0 110 -30 131 -88 13 -35 19 -42 36 -38 11 3 32 6 48 6 31 0 35 22 16 81 -32 94 -117 149 -229 148 -36 0 -81 -6 -101 -13z" style="fill: rgb(30, 70, 158);"/>
    <path d="M14894 1129 c-46 -13 -131 -94 -160 -151 -68 -133 -71 -369 -7 -511 89 -198 356 -237 477 -70 32 44 75 148 65 156 -2 2 -27 7 -55 10 l-52 6 -16 -44 c-22 -58 -82 -111 -134 -120 -57 -9 -122 21 -161 75 -25 35 -61 146 -61 189 0 8 79 11 240 11 212 0 241 2 247 16 10 27 -14 185 -38 248 -26 71 -96 151 -154 177 -43 20 -137 24 -191 8z m167 -122 c58 -39 105 -132 97 -190 -3 -22 -7 -22 -180 -25 l-178 -2 0 23 c0 40 27 116 53 151 51 66 145 86 208 43z" style="fill: rgb(30, 70, 158);"/>
    <path d="M7904 1117 c-11 -31 2 -641 15 -682 26 -80 118 -145 206 -145 62 0 185 81 185 121 0 5 5 9 10 9 6 0 10 -25 10 -55 l0 -55 45 0 45 0 -2 408 -3 407 -50 0 -50 0 -5 -290 c-4 -208 -9 -299 -18 -320 -40 -92 -141 -132 -217 -85 -58 36 -60 46 -65 385 l-5 310 -48 3 c-34 2 -49 -1 -53 -11z" style="fill: rgb(30, 70, 158);"/>
    <path d="M13055 1122 c-3 -3 -5 -187 -5 -409 l0 -403 49 0 c41 0 50 3 54 21 8 28 5 725 -2 763 -6 29 -10 31 -49 32 -23 1 -44 -1 -47 -4z" style="fill: rgb(30, 70, 158);"/>
    <path d="M13674 1116 c-12 -30 3 -629 16 -675 24 -81 118 -151 201 -151 56 0 103 23 156 75 l53 54 0 -55 0 -54 50 0 50 0 -2 408 -3 407 -50 0 -50 0 -6 -280 c-5 -273 -8 -298 -41 -363 -18 -35 -88 -72 -136 -72 -45 0 -95 34 -115 79 -8 17 -13 134 -17 331 l-5 305 -48 3 c-35 2 -49 -1 -53 -12z" style="fill: rgb(30, 70, 158);"/>
  </g>
</svg>